{"title":"Naruto Shippuden 98 DVBrip xvid audio castellano","uid":6216061,"size":172691456,"categoryP":"video","categoryS":"tv_shows","magnet":"?xt=urn:btih:bfce32efd52f30a79e727892b341d4dd30c590bc&amp;dn=Naruto+Shippuden+98+DVBrip+xvid+audio+castellano&amp;tr=udp%3A%2F%2Ftracker.openbittorrent.com%3A80&amp;tr=udp%3A%2F%2Fopen.demonii.com%3A1337&amp;tr=udp%3A%2F%2Ftracker.coppersurfer.tk%3A6969&amp;tr=udp%3A%2F%2Fexodus.desync.com%3A6969","seeders":0,"leechers":0,"uploader":null,"files":1,"time":1299160533,"description":"Naruto Shippuden 98 espaÃƒÂ±ol\n\nFormat                           : AVI\nFormat/Info                      : Audio Video Interleave\nFile size                        : 165 MiB\nDuration                         : 20mn 3s\nOverall bit rate                 : 1 148 Kbps\n\n\nVideo\nID                               : 0\nFormat                           : MPEG-4 Visual\nFormat profile                   : Advanced Simple@L5\nFormat settings, BVOP            : Yes\nFormat settings, QPel            : No\nFormat settings, GMC             : No warppoints\nFormat settings, Matrix          : Custom\nMuxing mode                      : Packed bitstream\nCodec ID                         : XVID\nCodec ID/Hint                    : XviD\nDuration                         : 20mn 3s\nBit rate                         : 1 012 Kbps\nWidth                            : 704 pixels\nHeight                           : 400 pixels\nDisplay aspect ratio             : 16:9\nFrame rate                       : 25.000 fps\nColor space                      : YUV\nChroma subsampling               : 4:2:0\nBit depth                        : 8 bits\nScan type                        : Progressive\nCompression mode                 : Lossy\nBits/(Pixel*Frame)               : 0.144\nStream size                      : 145 MiB (88%)\nWriting library                  : XviD 62\n\nAudio\nID                               : 1\nFormat                           : MPEG Audio\nFormat version                   : Version 1\nFormat profile                   : Layer 2\nCodec ID                         : 50\nDuration                         : 20mn 3s\nBit rate mode                    : Constant\nBit rate                         : 128 Kbps\nChannel(s)                       : 2 channels\nSampling rate                    : 48.0 KHz\nCompression mode                 : Lossy\nStream size                      : 18.4 MiB (11%)\nAlignment                        : Aligned on interleaves\nInterleave, duration             : 80 ms (2.00 video frames)\nInterleave, preload duration     : 504 ms\n\n","torrent":{"xt":"urn:btih:bfce32efd52f30a79e727892b341d4dd30c590bc","amp;dn":"Naruto+Shippuden+98+DVBrip+xvid+audio+castellano","amp;tr":["udp%3A%2F%2Ftracker.openbittorrent.com%3A80","udp%3A%2F%2Fopen.demonii.com%3A1337","udp%3A%2F%2Ftracker.coppersurfer.tk%3A6969","udp%3A%2F%2Fexodus.desync.com%3A6969"],"infoHash":"bfce32efd52f30a79e727892b341d4dd30c590bc","infoHashBuffer":{"type":"Buffer","data":[191,206,50,239,213,47,48,167,158,114,120,146,179,65,212,221,48,197,144,188]},"announce":[],"urlList":[]}}